/* XPM */
static char *icon[]={
"32 32 9 1",
"d c None",
". c #000000",
"a c #808000",
"f c #838183",
"e c #a4a1a4",
"# c #c0c000",
"b c #c5c6c5",
"c c #cdc6cd",
"g c #ff0000",
"................................",
"..####..........................",
"..#######.......................",
"...########.....................",
"...a########....................",
"...aa#########..................",
"....aa#########.................",
"....aaa##########...............",
".....aaa##########..............",
".....aaaa##########.............",
"......aaa##########b............",
"......aaaa#########cd...........",
".......aaaa########bceeeee......",
"........aaaa#######bdceeeeee....",
"........aaaaa#####cbcbceeeeeee..",
".........aaaaaa##bdcdbdceeeeeee.",
"..........aaaaaacbcbcbcbceeeeeee",
"...........aaaeedcdbdcdbdceeeeee",
".............eeeebcbcbcbcbceeeee",
"..............ffeeecdbdcdbd.....",
"..............fffeeecbcbcbcg....",
"..............fffeeeeedbdcggggg.",
"..............fffffeeeebcggggggg",
"..............ffffffeeeegggggggg",
"..............fffffffffggggggggg",
"...............fffffffgggggggggg",
"...............fffffff.ggggggggg",
"................ffffff.ggggggggg",
".................fffff.ggggggggg",
"..................ffff.ggggggggg",
"...................fff..gggggggg",
"....................ff..gggggggg"};
